<?xml version="1.0" encoding="UTF-8" standalone="no"?>
<svg
   xmlns:dc="http://purl.org/dc/elements/1.1/"
   xmlns:cc="http://creativecommons.org/ns#"
   xmlns:rdf="http://www.w3.org/1999/02/22-rdf-syntax-ns#"
   xmlns:svg="http://www.w3.org/2000/svg"
   xmlns="http://www.w3.org/2000/svg"
   viewBox="0 0 105 76"
   height="76"
   width="105"
   id="svg2"
   version="1.1">
  <metadata
     id="metadata8">
    <rdf:RDF>
      <cc:Work
         rdf:about="">
        <dc:format>image/svg+xml</dc:format>
        <dc:type
           rdf:resource="http://purl.org/dc/dcmitype/StillImage" />
        <dc:title></dc:title>
      </cc:Work>
    </rdf:RDF>
  </metadata>
  <defs
     id="defs6" />
  <path
     id="path12"
     d="M 50,69 7.5,68.5 7.1835777,65.75 6.8671553,63 H 52 97.132845 l -0.316423,2.642128 c -0.19129,1.597273 -1.107341,2.882516 -2.316422,3.25 C 93.4,69.226457 73.375,69.275 50,69 Z M 11,34.5 V 8 H 52 93 V 34.5 61 H 52 11 Z m 76,1 V 14 H 52 17 V 35.5 57 H 52 87 Z M 26.860784,50.033269 24.5,48.066539 27.75,48.033269 C 30.541128,48.004697 31,47.647022 31,45.5 31,43.352978 30.541128,42.995303 27.75,42.966731 l -3.25,-0.03327 2.360784,-1.96673 c 2.804318,-2.336232 6.02442,-2.520794 8.698086,-0.498534 2.131375,1.61209 4.882211,2.054505 4.011157,0.64511 -0.301403,-0.487681 0.122039,-1.442782 0.940983,-2.122445 1.882876,-1.562648 1.914481,-3.613608 0.06661,-4.322702 -2.383244,-0.914536 -0.697813,-4.517473 2.274208,-4.861564 2.035983,-0.235719 2.597031,-0.804557 2.426958,-2.460655 -0.271029,-2.639168 2.13534,-3.728771 4.699032,-2.127719 1.49041,0.930776 2.454021,0.888623 4.480673,-0.196009 2.803783,-1.500539 4.117575,-0.808608 4.704657,2.477787 0.202987,1.136288 1.28803,2.133215 2.512513,2.308471 2.726549,0.390241 3.938489,3.268328 1.864916,4.428757 -1.991567,1.114537 -1.981861,3.656206 0.01689,4.423199 0.856608,0.328712 1.320732,1.214589 1.031384,1.968615 -0.587317,1.530524 1.487343,1.86424 2.961145,0.476311 2.252092,-2.120871 7.095827,-2.213312 9.535667,-0.181984 L 79.5,42.933461 76.25,42.966731 C 73.458872,42.995303 73,43.352978 73,45.5 c 0,2.147022 0.458872,2.504697 3.25,2.533269 l 3.25,0.03327 -2.360784,1.96673 C 74.337384,52.36743 69.744492,52.601984 68,50.5 66.996359,49.290686 63.895703,49 52,49 40.104297,49 37.003641,49.290686 36,50.5 34.255508,52.601984 29.662616,52.36743 26.860784,50.033269 Z M 55.069567,38.416177 C 56.846012,36.275691 55.059122,33.5 51.904709,33.5 c -2.44841,0 -3.585851,2.282589 -2.520667,5.058413 0.736252,1.918644 4.04382,1.835898 5.685525,-0.142236 z M 64.48361,28.97348 c -0.348934,-0.564586 -1.350095,-0.902086 -2.224803,-0.75 -1.051193,0.182771 -1.87724,-0.803502 -2.436504,-2.909106 -0.713221,-2.685247 -0.453509,-3.609266 1.653435,-5.882695 1.983573,-2.140311 2.790027,-2.456003 3.906651,-1.529288 0.7739,0.64228 1.969415,1.039493 2.6567,0.882696 0.687286,-0.156798 1.640013,1.148445 2.117171,2.900539 0.728148,2.673706 0.485653,3.597712 -1.50902,5.75 -2.623688,2.831007 -3.226754,3.053752 -4.16363,1.537854 z M 67,23.5 C 67,22.666667 66.111111,22 65,22 c -1.111111,0 -2,0.666667 -2,1.5 0,0.833333 0.888889,1.5 2,1.5 1.111111,0 2,-0.666667 2,-1.5 z"
     style="fill:#000000" />
</svg>
