<?xml version="1.0" encoding="UTF-8" standalone="no"?>
<svg
   xmlns:dc="http://purl.org/dc/elements/1.1/"
   xmlns:cc="http://creativecommons.org/ns#"
   xmlns:rdf="http://www.w3.org/1999/02/22-rdf-syntax-ns#"
   xmlns:svg="http://www.w3.org/2000/svg"
   xmlns="http://www.w3.org/2000/svg"
   viewBox="0 0 300 300"
   height="300"
   width="300"
   id="svg2"
   version="1.1">
  <metadata
     id="metadata8">
    <rdf:RDF>
      <cc:Work
         rdf:about="">
        <dc:format>image/svg+xml</dc:format>
        <dc:type
           rdf:resource="http://purl.org/dc/dcmitype/StillImage" />
        <dc:title></dc:title>
      </cc:Work>
    </rdf:RDF>
  </metadata>
  <defs
     id="defs6" />
  <path
     id="path12"
     d="M 93.733116,285.53764 C 80.104968,280.78849 69.642527,270.72723 64.404212,257.33333 62.259032,251.84831 61.997937,242.46443 61.362148,148 L 60.666667,44.666667 57.68386,40.484985 C 54.55838,36.103287 46.295213,32 40.59686,32 35.763192,32 29.164233,35.116772 25.434248,39.161495 l -3.232419,3.505172 h 7.38594 C 39.132164,42.666667 44,46.076925 44,52.76344 44,55.555556 42.962615,58.370719 41.333333,60 38.952772,62.380561 36.888889,62.666667 22.096773,62.666667 5.6121391,62.666667 5.5119652,62.6478 2.6281449,59 -3.2459833,51.569701 2.2567797,33.633543 13.62554,23.154185 25.376463,12.322563 22.061225,12.666667 114.66667,12.666667 h 82 l 7.59533,3.560242 c 13.01104,6.098807 23.91232,19.59782 25.94577,32.12853 0.71355,4.397068 0.39964,4.813144 -8.13,10.775781 -4.8797,3.411163 -9.14345,6.202113 -9.47498,6.202113 -0.33154,0 -0.60279,-2.631485 -0.60279,-5.847744 0,-3.806428 -1.29593,-8.328452 -3.71247,-12.954206 -3.00536,-5.752919 -5.066,-7.813562 -10.81892,-10.818923 L 190.36216,32 H 133.24627 76.130379 l 2.572194,5.666667 c 2.466159,5.433065 2.573402,9.76533 2.601478,105.091333 0.03239,109.97252 -0.05347,108.76728 8.32608,116.87745 C 98.288116,268.01512 98.160036,268 160.49575,268 h 56.58138 l -2.53856,-6.68097 C 212.28108,255.37779 212,250.83153 212,220.25879 v -34.37928 l 10,-6.95204 10,-6.95204 v 40.07849 c 0,43.84639 0.0896,44.4186 7.99136,51.06753 7.91711,6.66182 19.92049,5.95823 27.15371,-1.59161 l 3.70101,-3.86303 -8.28803,-0.59949 c -6.58906,-0.47661 -8.794,-1.22436 -10.75636,-3.64779 -3.37692,-4.17032 -3.11905,-9.67674 0.61758,-13.18712 2.8148,-2.64436 4.49302,-2.89908 19.10092,-2.89908 15.30154,0 16.15264,0.14654 19.10514,3.28934 2.69987,2.87388 2.9953,4.20842 2.33908,10.56657 -1.49704,14.50491 -9.75036,26.28833 -23.02066,32.86701 l -6.61042,3.27708 L 182,287.64359 c -75.55755,0.28822 -81.82571,0.13868 -88.266884,-2.10595 z M 145.68453,184.31608 C 158.3856,171.59065 164,165.04304 164,162.95625 c 0,-4.77612 5.83293,-17.86556 12.7016,-28.50316 13.04567,-20.204 31.26951,-39.562787 50.9688,-54.143081 19.05531,-14.103642 63.66039,-39.566442 67.86259,-38.739332 5.67481,1.116968 5.09353,4.352019 -3.81799,21.248484 l -8.70989,16.514172 -7.50256,2.63968 C 271.37615,83.424837 268,84.969017 268,85.404525 c 0,0.43551 2.09032,1.347654 4.64516,2.026988 l 4.64516,1.235154 L 274.51423,93 c -2.23943,3.495621 -3.65294,4.333333 -7.31183,4.333333 -5.10692,0 -5.50229,0.721994 -2.32059,4.237737 2.08442,2.30324 1.93047,2.86034 -2.60796,9.43832 -20.73082,30.04712 -60.91306,61.82078 -83.10261,65.71248 -4.11831,0.72229 -7.47888,3.17156 -16.50457,12.02897 -11.05158,10.84552 -11.5488,11.15651 -20,12.50885 -17.04088,2.72686 -17.13339,3.24627 3.01786,-16.94361 z"
     style="fill:#000000;stroke-width:1.33333337" />
</svg>
