<?xml version="1.0" encoding="UTF-8" standalone="no"?>
<svg
   xmlns:dc="http://purl.org/dc/elements/1.1/"
   xmlns:cc="http://creativecommons.org/ns#"
   xmlns:rdf="http://www.w3.org/1999/02/22-rdf-syntax-ns#"
   xmlns:svg="http://www.w3.org/2000/svg"
   xmlns="http://www.w3.org/2000/svg"
   viewBox="0 0 266.66666 266.66666"
   height="266.66666"
   width="266.66666"
   id="svg2"
   version="1.1">
  <metadata
     id="metadata8">
    <rdf:RDF>
      <cc:Work
         rdf:about="">
        <dc:format>image/svg+xml</dc:format>
        <dc:type
           rdf:resource="http://purl.org/dc/dcmitype/StillImage" />
        <dc:title></dc:title>
      </cc:Work>
    </rdf:RDF>
  </metadata>
  <defs
     id="defs6" />
  <path
     id="path24"
     d="m 128.87331,244.22834 c -1.21365,-1.34108 -2.22573,-4.19108 -2.24905,-6.33333 -0.0233,-2.14226 -0.92332,-5.0597 -2,-6.48319 -2.81382,-3.7202 -2.76581,-29.6646 0.0624,-33.70237 1.71472,-2.44811 1.96657,-8.86819 1.66667,-42.48471 L 126,115.62395 105,155.44182 c -15.201812,28.82399 -21.000002,41.07122 -21.000002,44.35722 0,5.5633 -9.690392,23.71139 -13.267152,24.84662 -1.371858,0.4354 -3.461796,2.26825 -4.644305,4.07299 -2.824324,4.31046 -8.007681,4.3284 -10.819234,0.0375 -1.622084,-2.47561 -1.787262,-3.87593 -0.697404,-5.91234 0.785453,-1.46763 1.447065,-4.65787 1.470249,-7.08942 0.05365,-5.62686 9.031442,-22.68083 12.814522,-24.3421 1.947311,-0.85513 11.38326,-17.40828 29.642069,-52 l 26.785397,-50.745586 -5.41263,-0.415073 -5.41264,-0.415073 0.22537,-12.91826 c 0.12395,-7.105042 0.1707,-14.86826 0.10389,-17.251593 l -0.12147,-4.333333 H 95.539982 c -17.433361,0 -19.340337,0.236085 -21.539984,2.666667 -2.206842,2.438533 -4.106622,2.666666 -22.20665,2.666666 H 31.999999 V 49.999999 41.333332 H 51.76758 c 19.361464,0 19.831917,0.06848 22.899085,3.333334 3.047414,3.243825 3.62651,3.333333 21.565751,3.333333 15.497114,0 18.434244,-0.318662 18.434244,-2 0,-1.68254 2.96297,-2 18.66667,-2 H 152 v 6 6 h -7.84867 c -7.70139,0 -7.85968,0.07505 -8.43575,3.999999 l -0.58706,4 H 143.56425 152 V 75.923334 87.84667 l -5.30608,0.409997 -5.30607,0.409997 26.73455,50.724796 c 18.51605,35.13144 27.62753,51.1168 29.6394,52 3.82113,1.67743 12.80871,18.70056 12.86271,24.36285 0.0232,2.43155 0.68479,5.62179 1.47024,7.08942 1.08987,2.03641 0.92468,3.43673 -0.6974,5.91234 -2.81156,4.29098 -7.9949,4.27304 -10.81924,-0.0375 -1.1825,-1.80474 -3.27243,-3.63759 -4.6443,-4.07299 -3.53344,-1.12144 -13.26715,-19.28089 -13.26715,-24.75149 0,-3.15724 -6.08142,-16.01635 -21,-44.40425 l -21,-39.96001 -0.35329,39.64783 c -0.29993,33.65852 -0.0481,40.0835 1.66667,42.53175 2.82817,4.03777 2.87618,29.98217 0.0624,33.70237 -1.07667,1.42349 -1.97667,4.44519 -2,6.71485 -0.0743,7.23172 -6.81423,10.91374 -11.16909,6.10167 z"
     style="fill:#000000;stroke-width:1.33333325" />
</svg>
