<?xml version="1.0" encoding="UTF-8" standalone="no"?>
<svg
   xmlns:dc="http://purl.org/dc/elements/1.1/"
   xmlns:cc="http://creativecommons.org/ns#"
   xmlns:rdf="http://www.w3.org/1999/02/22-rdf-syntax-ns#"
   xmlns:svg="http://www.w3.org/2000/svg"
   xmlns="http://www.w3.org/2000/svg"
   viewBox="0 0 512 512"
   height="512"
   width="512"
   id="svg2"
   version="1.1">
  <metadata
     id="metadata8">
    <rdf:RDF>
      <cc:Work
         rdf:about="">
        <dc:format>image/svg+xml</dc:format>
        <dc:type
           rdf:resource="http://purl.org/dc/dcmitype/StillImage" />
        <dc:title></dc:title>
      </cc:Work>
    </rdf:RDF>
  </metadata>
  <defs
     id="defs6" />
  <path 
     id="path_resume"
     d="M 123.27215,472.56314 C 104.89876,468.11104 90.250085,453.78981 84.338705,434.5 82.584059,428.7743 82.5,420.61387 82.5,256 82.5,91.386126 82.584059,83.2257 84.338705,77.5 90.362606,57.843012 106.05006,42.950965 124.79922,39.090978 c 3.61198,-0.743617 35.76982,-1.089788 101,-1.08724 92.34414,0.0036 95.806,0.07047 98.70078,1.906216 3.41311,2.164454 100.91779,95.827646 103.38835,99.315056 1.46414,2.06677 1.61165,15.4087 1.61165,145.77499 0,136.46185 -0.0902,143.79428 -1.83871,149.5 -6.06122,19.77879 -21.56143,34.49079 -40.46051,38.40303 -8.13064,1.68309 -256.90209,1.36273 -263.92863,-0.33989 z M 388,446.1604 c 5.78564,-3.00803 9.51745,-6.54253 12.83921,-12.1604 L 403.5,429.5 403.76405,293.75 404.02811,158 h -26.30396 c -29.14343,0 -33.46334,-0.61173 -44.00766,-6.23179 -11.92764,-6.35737 -20.75839,-16.77413 -25.57319,-30.16617 -2.43654,-6.77705 -2.57139,-8.28035 -2.94682,-32.85204 L 304.80304,63 h -86.72338 c -97.52808,0 -92.07196,-0.40879 -100.93806,7.562596 -2.89588,2.603646 -5.8371,6.518624 -7.25578,9.657973 L 107.50004,85.5 l -2e-5,170.5 -2e-5,170.5 2.80615,5.71444 c 3.4036,6.93107 10.34317,13.30089 16.60297,15.23984 3.88017,1.20186 24.0969,1.39287 130.59088,1.23386 L 383.5,448.5 Z M 143.38812,420.01993 c -5.90296,-2.38506 -8.74068,-10.75798 -5.67727,-16.75117 3.85305,-7.53801 1.20632,-7.26546 70.57127,-7.26721 51.51019,-0.001 62.35505,0.23784 65.2281,1.43827 8.21714,3.43334 9.84862,14.09392 3.103,20.27583 L 273.02937,421 209.26469,420.9366 c -35.07058,-0.0349 -64.71504,-0.44737 -65.87657,-0.91668 z M 145,369.29377 c -3.02534,-1.10593 -6.04894,-4.76181 -7.06789,-8.54589 -0.88457,-3.28506 -0.722,-4.55046 1.05668,-8.22473 C 142.87396,344.49748 134.93866,345 257.78584,345 c 103.40899,0 108.91256,0.0897 112.1525,1.82727 7.83189,4.20028 9.12637,13.97603 2.63805,19.92213 L 369.02937,370 257.76469,369.92105 C 196.56911,369.87763 145.825,369.59536 145,369.29377 Z m -2.90521,-52.86747 c -1.68227,-1.41553 -3.57485,-4.29657 -4.20575,-6.40232 -0.97623,-3.25836 -0.86721,-4.39212 0.73194,-7.61177 1.03346,-2.08073 3.14942,-4.71218 4.70213,-5.84768 2.80649,-2.05238 3.46739,-2.06608 112.32624,-2.3276 105.27491,-0.2529 109.66709,-0.19054 113.74891,1.61504 8.37924,3.70654 9.94934,13.62119 3.15109,19.89803 L 369.02937,319 H 257.09141 145.15345 Z m 4.88853,-48.56336 c -4.14189,-0.84736 -7.76469,-4.4012 -9.12916,-8.95538 -0.93513,-3.12118 -0.81304,-4.31453 0.76682,-7.49535 1.03346,-2.08073 3.10841,-4.68149 4.61099,-5.77946 2.69145,-1.96672 4.37548,-1.99626 113.54538,-1.99194 106.72846,0.004 110.93096,0.0738 114.00188,1.88785 C 374.1456,247.51723 377,252.32199 377,256 c 0,3.63833 -2.84102,8.47487 -6.11383,10.40817 -2.92538,1.72807 -8.59684,1.82718 -111.93519,1.95606 -59.86952,0.0747 -110.25497,-0.15091 -111.96766,-0.50129 z M 137.02368,217.75 c 0.013,-1.2375 0.42958,-7.48986 0.92566,-13.89412 1.355,-17.49231 3.41097,-20.57468 17.55066,-26.31247 3.85,-1.5623 9.30478,-4.12369 12.12173,-5.69198 2.81695,-1.56829 5.33009,-2.85143 5.58476,-2.85143 0.25466,0 3.09677,8.29941 6.31579,18.44312 3.21902,10.14372 6.14062,18.26522 6.49245,18.04778 0.35183,-0.21744 1.47076,-3.14021 2.48652,-6.49504 1.83888,-6.07341 1.83747,-6.11896 -0.32721,-10.57452 C 186.97832,185.96017 186,183.08405 186,182.02995 c 0,-4.62432 9.24976,-6.78019 13,-3.02995 2.56321,2.56321 2.51673,3.64037 -0.40618,9.41386 l -2.40618,4.75281 2.29177,6.66667 c 2.71091,7.88593 1.906,9.13178 9.46224,-14.64575 2.85115,-8.97182 5.49315,-16.16965 5.87113,-15.99517 27.11271,12.51558 29.33238,13.84872 32.13918,19.30286 2.21678,4.30764 2.54534,6.37444 2.89039,18.1824 L 249.23166,220 H 193.11583 137 l 0.0237,-2.25 z m 46.42051,-50.63613 c -5.13623,-2.33294 -10.74586,-8.83788 -12.37707,-14.35249 -0.69328,-2.34376 -1.6782,-4.93638 -2.18872,-5.76138 -2.20405,-3.56179 -4.69831,-9.77694 -5.30217,-13.21184 -0.51471,-2.92781 -0.23963,-4.12476 1.30228,-5.66667 1.07515,-1.07515 1.73075,-2.17889 1.45689,-2.45275 -1.14388,-1.14389 -0.31884,-12.77394 1.1581,-16.32495 2.21526,-5.32614 10.02622,-13.109312 16.0065,-15.949569 5.76264,-2.73689 14.62758,-3.203407 19.80055,-1.042003 1.77997,0.74372 5.39289,3.21872 8.0287,5.5 2.63581,2.281282 5.24032,4.147782 5.7878,4.147782 0.54748,0 1.9278,2.10783 3.06739,4.68406 1.74604,3.94721 1.99414,6.04926 1.57715,13.36264 -0.27975,4.90649 -0.0626,9.45098 0.49966,10.45564 1.59313,2.84677 -0.99479,12.438 -4.1707,15.45726 -1.46972,1.39722 -3.21264,4.38029 -3.87318,6.62904 -3.93959,13.41216 -18.30033,20.19057 -30.77318,14.52523 z"
     style="fill:#000000" />
</svg>
