<?xml version="1.0" encoding="UTF-8" standalone="no"?>
<svg
   xmlns:dc="http://purl.org/dc/elements/1.1/"
   xmlns:cc="http://creativecommons.org/ns#"
   xmlns:rdf="http://www.w3.org/1999/02/22-rdf-syntax-ns#"
   xmlns:svg="http://www.w3.org/2000/svg"
   xmlns="http://www.w3.org/2000/svg"
   viewBox="0 0 1200 1196"
   height="1196"
   width="1200"
   id="svg2"
   version="1.1">
  <metadata
     id="metadata8">
    <rdf:RDF>
      <cc:Work
         rdf:about="">
        <dc:format>image/svg+xml</dc:format>
        <dc:type
           rdf:resource="http://purl.org/dc/dcmitype/StillImage" />
        <dc:title></dc:title>
      </cc:Work>
    </rdf:RDF>
  </metadata>
  <defs
     id="defs6" />
  <path
     id="path12"
     d="m 315.92213,1085.4024 c -10.15437,-3.0813 -18.94714,-11.2483 -22.22989,-20.648 -2.02264,-5.7916 -2.35891,-11.6961 -2.35891,-41.4211 v -34.66663 l 3.77015,-7.67775 c 4.03545,-8.218 9.84243,-13.54667 17.89381,-16.41992 3.98862,-1.42339 23.5844,-1.79715 96.66938,-1.84381 l 91.66666,-0.0585 v -66.50354 -66.50352 l -93.61125,-0.9959 c -51.48619,-0.54775 -136.23619,-0.77206 -188.33333,-0.49848 l -94.72208,0.4974 L 116,825.69996 C 85.633325,815.31913 64.507247,790.36595 60.259035,759.86119 59.592677,755.07635 59.131712,633.11875 59.208797,482 c 0.1296,-254.07547 0.27173,-269.78103 2.508824,-277.23601 6.846326,-22.81499 20.243654,-39.66912 38.804569,-48.817 20.35108,-10.03019 -22.813158,-9.23144 500.26453,-9.25718 464.51078,-0.0228 470.92398,0.012 481.08528,2.61078 26.9068,6.88161 45.4732,24.4647 54.9424,52.03274 2.4383,7.09846 2.5189,16.25895 2.5189,286 0,268.8763 -0.088,278.92431 -2.4975,286 -8.4492,24.80912 -25.9408,43.72111 -46.8358,50.63902 -4.4,1.45674 -12.2,3.24702 -17.3333,3.9784 -5.8345,0.83125 -77.94173,1.33966 -192.34582,1.35617 l -183.01244,0.0264 0.34577,66.33334 L 698,962 l 93.33333,0.66667 c 104.70999,0.74793 98.30395,0.10986 107.9154,10.7486 8.05702,8.91814 9.01394,15.02325 8.50595,54.26803 -0.42529,32.8563 -0.57731,34.5856 -3.57224,40.6344 -1.72043,3.4747 -5.15683,8.0989 -7.63645,10.2761 -9.80568,8.6095 9.84049,8.0844 -297.78799,7.9583 -153.68357,-0.063 -280.95971,-0.5804 -282.83587,-1.1497 z M 1073.3841,770.33333 c 4.1551,-2.09525 6.7535,-4.60844 8.6159,-8.33333 2.6403,-5.28053 2.6667,-8 2.6667,-274.66667 0,-269.2944 -4e-4,-269.33401 -2.7388,-273.99546 -1.5063,-2.56418 -4.745,-6.01418 -7.1972,-7.66667 l -4.4584,-3.00453 -469.46947,0.0293 c -458.30588,0.0285 -469.60214,0.0895 -475.04774,2.56189 -3.45176,1.56715 -6.50144,4.22446 -8,6.97072 -2.31391,4.24046 -2.43746,16.33407 -2.77432,271.55756 -0.24013,181.93723 0.0899,268.76279 1.03507,272.27271 1.71049,6.35227 7.17996,13.04488 12.58472,15.39904 3.35449,1.46113 85.86351,1.78023 471.45025,1.82328 l 467.38419,0.0521 z M 586.23863,730.62679 C 575.06916,727.34864 568.41728,724.05443 557.85077,716.56825 542.24515,705.51196 523.67757,682.41764 513.17452,661 l -4.41353,-9 -18.04716,-0.0264 c -30.04016,-0.044 -46.9171,-3.36615 -67.4163,-13.27072 -15.17962,-7.33433 -26.13272,-16.98347 -32.90994,-28.99204 -2.80947,-4.97809 -5.62384,-7.96076 -9.26383,-9.81775 -6.59051,-3.36221 -10.44564,-9.56101 -10.45211,-16.80628 -0.007,-6.96465 1.73914,-11.67128 5.7372,-15.47121 2.37246,-2.25489 3.48812,-5.52445 4.74044,-13.89239 2.75507,-18.40906 10.3686,-37.75925 22.62224,-57.49548 3.79232,-6.10809 6.89514,-11.61057 6.89514,-12.22773 0,-0.61716 -2.98554,-5.9358 -6.63454,-11.81917 -38.62745,-62.28028 -31.02873,-118.53528 19.3012,-142.89098 20.52734,-9.9336 38.91862,-13.51662 67.74943,-13.19908 9.39552,0.10347 17.24356,-0.0247 17.44008,-0.28465 0.19653,-0.26003 3.17143,-5.73955 6.61089,-12.17669 4.99426,-9.34703 5.97963,-12.21575 4.89326,-14.24568 -2.25866,-4.22032 -1.53799,-12.03788 1.62921,-17.67316 3.6326,-6.46334 11.22013,-10.71044 18.23019,-10.2043 4.28753,0.30958 6.31056,-0.70265 14.87145,-7.44093 28.55647,-22.47681 59.31645,-25.15405 89.24216,-7.76733 17.52027,10.17921 40.37649,36.85849 52.31147,61.06133 L 700.57235,316 h 17.61734 c 58.70099,0 94.89862,19.41043 107.7849,57.79799 5.7832,17.22784 4.29374,42.36337 -3.78163,63.81768 -4.42115,11.74589 -12.98961,28.70225 -19.32001,38.23284 l -5.23143,7.87608 5.24504,8.29537 c 6.84103,10.81951 16.81108,30.71948 20.03036,39.98004 6.36169,18.30008 8.38868,43.81768 4.60721,58 -2.44065,9.1536 -8.43637,21.02804 -13.75508,27.24177 -3.1016,3.62351 -4.43721,6.52198 -4.4407,9.63684 -0.007,5.6822 -4.08675,12.38679 -9.6495,15.85532 -3.4961,2.17992 -5.77894,2.56956 -11.67885,1.99336 -4.03333,-0.3939 -8.53333,-0.79772 -10,-0.89736 -1.46667,-0.0996 -8.66667,1.47206 -16,3.49267 -11.67515,3.21695 -16.31047,3.74244 -37.27208,4.22548 -13.16632,0.3034 -24.0452,0.6792 -24.17531,0.83512 -0.13013,0.15591 -2.15669,4.11345 -4.5035,8.79455 -12.16526,24.26548 -34.6569,50.41941 -52.04911,60.52422 -18.51503,10.75715 -40.13572,14.09782 -57.76137,8.92482 z m 39.41913,-23.15647 c 17.74023,-8.46857 32.10375,-22.80153 45.74108,-45.64379 3.99731,-6.6954 7.26783,-12.47862 7.26783,-12.85161 0,-0.37297 -2.25,-1.08269 -5,-1.57713 -13.00911,-2.33903 -29.45664,-6.70586 -48.50818,-12.87896 l -20.84152,-6.75311 -16.00369,5.40769 c -17.4044,5.881 -36.20433,11.05555 -49.31328,13.57312 -4.58333,0.88023 -8.33333,1.85215 -8.33333,2.15983 0,2.99153 13.9775,24.52492 22.80332,35.13023 10.43965,12.54449 26.36177,23.42845 39.19668,26.79381 2.2,0.57685 8.8,0.87932 14.66666,0.67215 8.35167,-0.29494 12.32864,-1.17004 18.32443,-4.03223 z M 498.36333,630.08111 c 0.31864,-0.31864 -1.27205,-6.16724 -3.53486,-12.9969 -4.68234,-14.13224 -11.54612,-42.21288 -12.95908,-53.01728 -0.83823,-6.4096 -1.66167,-7.90316 -6.98348,-12.66666 -23.8596,-21.35655 -33.36199,-30.74566 -45.948,-45.40027 -3.37634,-3.93127 -3.46979,-3.95417 -5.43812,-1.33333 -8.21075,10.93265 -19.98624,38.97494 -21.65787,51.57632 -0.80541,6.07142 -0.55911,6.91921 3.14884,10.83849 2.21243,2.33852 4.69459,5.56241 5.51592,7.1642 2.30977,4.50463 1.76105,12.63217 -1.17833,17.45321 -1.46392,2.40106 -2.66168,4.88616 -2.66168,5.52247 0,2.05291 12.17848,14.77435 17.83962,18.63497 6.51956,4.44602 20.61278,10.22174 29.67455,12.16128 15.09757,3.23144 41.76891,4.4771 44.18249,2.0635 z m 248.97,-0.91395 c 4.4,-0.71171 10.76058,-2.18399 14.13462,-3.27173 5.35642,-1.72686 6.33104,-2.63336 7.68313,-7.14626 1.70135,-5.67857 8.93827,-12.88549 14.28724,-14.228 1.86417,-0.46788 5.72932,-0.53684 8.5892,-0.15325 5.01467,0.67261 5.34625,0.46919 9.31405,-5.71409 2.59383,-4.04214 4.9077,-10.27504 6.26123,-16.86602 2.57097,-12.5192 1.27408,-24.84784 -4.35417,-41.39237 -3.39419,-9.97739 -13.2297,-30.15591 -17.41508,-35.72877 -1.96798,-2.62036 -2.06124,-2.5972 -5.37067,1.33333 -7.01109,8.32692 -34.80291,35.81412 -42.83769,42.36817 -4.60614,3.75728 -8.64852,8.06151 -8.98307,9.56495 -0.33453,1.50345 -1.84332,9.03355 -3.35284,16.73355 -3.05261,15.57124 -9.68264,40.50262 -12.67613,47.66708 -2.74864,6.57842 -2.45422,8.07465 1.72018,8.74178 4.81574,0.76964 22.91431,-0.27698 33,-1.90837 z m -210.47594,-3.28791 c 12.06437,-2.44229 33.51812,-8.25046 36.36997,-9.84645 1.39448,-0.78039 -1.08015,-2.60313 -8.81172,-6.49049 -14.40556,-7.24298 -34.92509,-19.13912 -46.68876,-27.06768 -10.26292,-6.91708 -12.982,-7.86438 -11.88697,-4.1413 0.37745,1.28334 1.67074,6.23334 2.87398,11 2.66883,10.5726 9.80014,33.13302 11.48491,36.33334 1.51075,2.86976 3.41293,2.89402 16.65859,0.21258 z M 693.54525,612.66667 C 699.36312,595.17624 704.05928,576 702.52472,576 c -0.60459,0 -6.96997,3.84075 -14.14532,8.535 -12.89576,8.43665 -29.51137,17.81907 -45.04607,25.43636 -4.4,2.15751 -8.28262,4.12919 -8.62805,4.38152 -2.88204,2.10529 41.04981,13.72093 49.96139,13.20985 3.86442,-0.22162 4.16536,-0.7265 8.87858,-14.89606 z m -62.3786,-19.80588 c 23.26312,-11.4425 42.75115,-23.0471 63.36946,-37.73487 l 14.5277,-10.34903 1.78147,-12.72177 c 2.38912,-17.06119 2.392,-79.02913 0.004,-96.07652 l -1.77699,-12.68807 -16.31188,-11.59841 c -8.97153,-6.37913 -21.9629,-14.96875 -28.8697,-19.08805 -17.23347,-10.27824 -51.91143,-27.23612 -57.39118,-28.06488 -10.0248,-1.51618 -71.82936,31.89637 -99.83332,53.9715 -3.3,2.60135 -6.15837,4.80899 -6.35193,4.9059 -1.41691,0.70928 -4.28645,41.70173 -4.28763,61.25008 -0.001,19.26053 2.88336,59.29916 4.31884,59.94797 0.1764,0.0797 3.02072,2.27332 6.32072,4.87467 18.02934,14.21228 50.0992,33.36321 77.33334,46.18062 14.37852,6.76707 18.90537,8.33455 22.49998,7.79088 2.475,-0.37432 13.575,-5.14433 24.66667,-10.60002 z M 595.66123,525.2914 C 575.81588,520.32759 562.66667,503.87187 562.66667,484 c 0,-16.70139 9.27857,-31.25545 24.2557,-38.04669 21.21494,-9.61972 45.50967,-0.85424 55.84708,20.14948 C 645.41977,471.48775 646,474.70221 646,484 c 0,13.27787 -3.06937,21.06937 -11.69993,29.69993 -9.60568,9.60568 -26.416,14.6487 -38.63884,11.59147 z M 475.4778,504.1336 c -0.69628,-11.00497 -0.69628,-27.08036 0,-38.79745 0.88216,-14.84538 0.79448,-20.00618 -0.33989,-20.00475 -1.98294,0.003 -33.71348,33.00987 -35.49796,36.92637 -1.15927,2.54432 -0.6146,3.8383 3.66164,8.69891 9.25232,10.51673 31.76633,32.95269 32.57028,32.45737 0.43713,-0.26933 0.25981,-8.94553 -0.39407,-19.28045 z m 293.15001,-16.55384 c 2.16936,-3.31085 2.1845,-3.82556 0.20154,-6.85193 -3.9882,-6.08676 -34.57992,-36.84432 -35.58916,-35.78207 -0.5509,0.57983 -0.52894,9.60424 0.0488,20.05424 0.57773,10.45 0.58613,27.55 0.0187,38 -0.56746,10.45 -0.69497,19.55267 -0.28333,20.22816 0.79261,1.30069 31.6138,-29.55936 35.60349,-35.6484 z m -331.9431,-34.75665 c 5.77208,-6.51396 17.72932,-18.16032 26.57165,-25.88082 8.84233,-7.72048 16.47571,-14.99086 16.96304,-16.15642 0.48735,-1.16556 1.91415,-7.8192 3.17068,-14.78587 2.87487,-15.93923 6.25831,-29.23944 11.46899,-45.08421 2.24598,-6.82966 3.67045,-12.82966 3.16548,-13.33334 -1.5093,-1.50542 -27.22599,-0.47768 -38.73319,1.54795 -20.51167,3.61069 -35.56525,11.32713 -46.53116,23.8518 -8.97348,10.24903 -11.82068,18.67897 -11.82721,35.0178 -0.005,14.63364 2.02826,24.14647 8.32962,38.95445 4.77972,11.23218 14.68371,28.64882 15.98282,28.10652 0.51953,-0.21686 5.6672,-5.7239 11.43928,-12.23786 z m 356.25314,-1.57596 c 17.64094,-32.9729 20.64914,-62.81815 8.27523,-82.10122 -8.48336,-13.22017 -24.44003,-23.71094 -43.21308,-28.4106 -16.52031,-4.1357 -47.33333,-5.49489 -47.33333,-2.08792 0,0.55952 0.92974,3.64275 2.06609,6.85162 4.04296,11.41665 8.92768,30.09901 12.62187,48.27433 l 3.748,18.44003 5.75372,4.8933 c 17.17353,14.60542 36.9473,34.17051 45.41604,44.93676 1.47736,1.87816 3.3368,3.19794 4.13208,2.93284 0.79529,-0.2651 4.6353,-6.44321 8.53338,-13.72914 z M 517.5828,385.52437 c 12.35832,-8.18402 32.93637,-20.07968 46.75053,-27.0253 5.86763,-2.95019 10.14303,-5.82804 9.50088,-6.39523 -3.33046,-2.94169 -48.08512,-13.06033 -51.67416,-11.68309 -1.95529,0.75032 -9.19341,21.32916 -13.45209,38.24592 -1.19997,4.76666 -2.4906,9.71666 -2.86805,11 -1.07023,3.63877 1.20501,2.83618 11.74289,-4.1423 z m 183.60323,-3.8577 c -4.17899,-17.64548 -12.04503,-40.49084 -14.23044,-41.32946 -3.86975,-1.48496 -51.62226,9.77484 -51.62226,12.17228 0,0.59532 6.9,4.68599 15.33334,9.09038 16.64173,8.69129 32.818,18.24556 43.33333,25.5942 3.66667,2.56245 7.33415,4.69206 8.14997,4.73246 1.00079,0.0496 0.68722,-3.28794 -0.96394,-10.25986 z m -76.20711,-48.21608 c 10.88739,-3.60218 27.27105,-8.18956 36.40816,-10.19422 9.13711,-2.00464 16.82717,-3.82166 17.08905,-4.03782 1.03179,-0.85171 -14.75844,-25.71932 -21.57578,-33.97911 -8.19483,-9.92873 -19.9818,-19.28807 -31.24259,-24.80791 -6.79557,-3.33106 -9.08391,-3.74844 -20.32443,-3.70709 -15.39446,0.0567 -23.10797,2.75541 -36.33333,12.71223 -8.58795,6.46549 -9.00009,7.03029 -9.00207,12.33618 -0.004,10.25448 -6.64157,18.80179 -16.10422,20.73711 -3.5596,0.72801 -5.31938,2.36203 -8.83075,8.19961 -2.41189,4.00974 -4.38775,7.61802 -4.39077,8.0184 -0.003,0.40038 7.48526,2.36466 16.64068,4.36506 9.15541,2.0004 25.20541,6.54102 35.66666,10.09028 10.46126,3.54925 19.7368,6.53497 20.61231,6.63494 0.87552,0.1 10.49971,-2.76549 21.38708,-6.36766 z"
     style="fill:#000000;stroke-width:1.33333337" />
</svg>
