<?xml version="1.0" encoding="UTF-8" standalone="no"?>
<svg
   xmlns:dc="http://purl.org/dc/elements/1.1/"
   xmlns:cc="http://creativecommons.org/ns#"
   xmlns:rdf="http://www.w3.org/1999/02/22-rdf-syntax-ns#"
   xmlns:svg="http://www.w3.org/2000/svg"
   xmlns="http://www.w3.org/2000/svg"
   viewBox="0 0 789 771"
   height="771"
   width="789"
   id="svg2"
   version="1.1">
  <metadata
     id="metadata8">
    <rdf:RDF>
      <cc:Work
         rdf:about="">
        <dc:format>image/svg+xml</dc:format>
        <dc:type
           rdf:resource="http://purl.org/dc/dcmitype/StillImage" />
        <dc:title></dc:title>
      </cc:Work>
    </rdf:RDF>
  </metadata>
  <defs
     id="defs6" />
  <path
     id="path12"
     d="M 181.8625,745.99331 C 166.01825,743.48274 148.74796,737.36287 134.7254,729.2899 115.25113,718.07831 87.864173,694.46974 71.166753,674.5 32.448467,628.1938 20.362983,576.01397 38.025554,531.4108 c 13.270012,-33.51067 39.244817,-59.01612 75.197926,-73.83913 12.0638,-4.97375 22.15826,-7.15497 44.27652,-9.56732 23.53261,-2.5666 33.57647,-4.36228 42.81199,-7.65408 14.17147,-5.05112 24.32142,-12.55657 31.48193,-23.27952 2.14407,-3.21077 6.70867,-12.84744 10.14356,-21.41482 9.58471,-23.90639 15.30044,-31.988 29.06252,-41.09222 9.11487,-6.02989 16.84478,-8.68703 27.06461,-9.30342 21.11215,-1.27334 41.59626,7.62286 62.73949,27.24763 l 7.30411,6.77953 3.19589,-2.98848 C 429.01052,322.33762 623.26837,137.29152 624.74509,134.87622 628.08117,129.41976 630,121.23761 630,112.46861 v -8.1684 l 8.7267,-5.807497 c 7.37915,-4.910726 8.42146,-5.926759 6.75,-6.579821 -1.08719,-0.424777 -2.8937,-0.80395 -4.01447,-0.842607 -1.12078,-0.03866 -3.59578,-1.371862 -5.5,-2.962679 -3.33313,-2.784542 -3.39698,-2.964598 -1.71223,-4.828741 0.9625,-1.064991 1.76905,-2.350913 1.79233,-2.857606 0.0233,-0.506692 1.6281,-1.932843 3.56627,-3.169223 l 3.52395,-2.247963 2.68372,3.171565 c 1.47605,1.744361 3.00837,4.955587 3.40516,7.136059 0.39678,2.180472 0.94612,4.189182 1.22073,4.4638 0.50465,0.504644 13.38543,-9.657898 15.55583,-12.273072 1.74397,-2.10136 0.45653,-3.31172 -4.2778,-4.021677 -2.42546,-0.36372 -5.71766,-1.846363 -7.70938,-3.471924 -3.33407,-2.721135 -3.40535,-2.915386 -1.74349,-4.751711 0.95297,-1.053027 1.75173,-2.329161 1.77501,-2.835854 0.0233,-0.506692 1.6607,-1.954488 3.63871,-3.217324 l 3.59639,-2.296064 2.77262,3.296064 c 1.58747,1.887175 3.04893,5.102748 3.41906,7.522757 0.35554,2.32468 1.11632,4.517089 1.69061,4.87202 1.20426,0.744272 15.01518,-12.574018 14.5345,-14.016059 -0.30809,-0.924259 -2.42991,-1.751813 -7.69422,-3.000896 -1.375,-0.326252 -3.73344,-1.690532 -5.24097,-3.031735 l -2.74096,-2.43855 2.24096,-3.51341 c 1.23253,-1.932375 2.65554,-3.532457 3.16223,-3.555736 0.50669,-0.02328 1.79261,-0.829826 2.8576,-1.792326 1.86329,-1.683972 2.0411,-1.624617 4.71263,1.573142 1.52696,1.827728 3.05472,5.064405 3.39504,7.192615 0.34031,2.128211 1.05124,4.136766 1.57984,4.463456 1.25119,0.77328 7.01349,-7.126834 11.65514,-15.979213 2.01871,-3.85 3.8205,-7.178296 4.00398,-7.396213 0.18348,-0.217918 2.32307,1.437614 4.75464,3.678959 5.26871,4.85652 10.28207,7.51337 17.2872,9.161401 6.25959,1.472636 8.08387,3.307003 8.50883,8.555853 0.31412,3.8799 0.44356,4.009744 4.31116,4.324513 2.19303,0.178483 4.54157,0.784498 5.21898,1.346702 0.67741,0.562203 2.35096,4.691782 3.71898,9.176843 2.02343,6.633781 3.45053,9.235347 7.65186,13.94913 2.84049,3.186961 4.99765,5.9351 4.7937,6.106976 -0.20396,0.171876 -2.84584,1.522451 -5.87084,3.001279 -7.61603,3.723236 -18.07198,10.873007 -17.67784,12.088077 0.17957,0.55356 2.13178,1.45648 4.33825,2.00648 2.20647,0.55 5.63668,2.24221 7.62268,3.76047 l 3.61092,2.76047 -2.197,3.34858 c -1.20836,1.84172 -3.51379,4.11158 -5.12318,5.04413 -2.88131,1.66955 -2.9714,1.65032 -5.87635,-1.25463 -1.95883,-1.95883 -3.09117,-4.24538 -3.36976,-6.8046 -0.81035,-7.44411 -2.32992,-7.42724 -10.76208,0.1195 -9.43284,8.44235 -9.73208,10.43658 -1.68981,11.26162 1.89707,0.19462 5.14605,1.69776 7.21996,3.34033 l 3.77073,2.98647 -2.15559,3.2465 c -1.18558,1.78557 -3.55453,4.17536 -5.26434,5.31063 l -3.10875,2.06413 -3.0118,-3.5918 c -1.96851,-2.3476 -3.04455,-4.77016 -3.10635,-6.99352 -0.1232,-4.43262 -2.46043,-6.9733 -4.70286,-5.11225 -3.61389,2.99927 -11.7368,14.19396 -10.9034,15.02666 0.48761,0.48722 2.51176,1.06477 4.49811,1.28346 1.98634,0.21869 5.18645,1.65428 7.11136,3.1902 l 3.49982,2.79257 -2.08369,3.13821 c -1.14603,1.72601 -3.54462,4.10822 -5.33019,5.2938 l -3.2465,2.15559 -2.89017,-3.68326 c -1.58959,-2.02579 -3.20521,-5.40379 -3.59026,-7.50667 -0.8872,-4.84532 -1.93443,-4.0919 -8.13058,5.84941 l -4.52681,7.26298 -8.21226,0.009 c -9.2331,0.0104 -19.30041,2.67431 -24.25358,6.41764 -2.37457,1.79456 -169.60066,172.16835 -258.91063,263.7841 -18.13836,18.60665 -22.37248,24.9722 -23.28194,35.00192 -0.46056,5.0791 -0.12505,6.70237 2.58015,12.48323 4.10916,8.78109 12.03027,16.56972 19.85693,19.52482 4.72447,1.78382 6.99923,2.07366 12.29681,1.56682 19.49844,-1.86549 23.5472,-1.88673 25.3012,-0.13273 2.72848,2.72847 2.05035,7.50614 -2.0512,14.45156 -7.8809,13.34522 -18.1092,19.82042 -45.26653,28.65677 -20.63269,6.71338 -27.39972,10.04705 -33.38633,16.44722 -8.77803,9.38442 -12.71953,21.0678 -14.53261,43.07751 -3.52709,42.81671 -10.84618,66.64457 -28.32186,92.20402 -16.67826,24.39316 -43.84213,43.24323 -73.24267,50.82595 -10.65023,2.7468 -13.91218,3.13342 -29,3.43721 -9.35,0.18826 -19.53687,-0.0597 -22.6375,-0.55099 z m 62.8268,-36.52538 c 8.61729,-5.64627 4.9962,-19.76153 -5.42826,-21.15974 -10.56163,-1.41661 -17.38563,10.63656 -10.5926,18.70962 1.46764,1.74419 3.60514,3.57115 4.75,4.0599 2.76352,1.17978 8.19807,0.40358 11.27086,-1.60978 z m -46.58718,-11.75449 c 8.50037,-5.7202 6.12946,-18.86032 -3.85519,-21.36631 -4.09692,-1.02827 -10.12344,1.40241 -12.29102,4.95734 -6.85961,11.25009 5.35931,23.66786 16.14621,16.40897 z m 79.93061,-22.23037 c 12.03608,-6.22409 3.77589,-25.03015 -9.39648,-21.39308 -6.45411,1.78207 -9.75694,8.22611 -7.71293,15.04843 2.05072,6.84466 10.25744,9.88795 17.10941,6.34465 z m -47.52251,-10.92289 c 3.7795,-1.57918 7.48018,-6.72483 7.48604,-10.40905 0.006,-3.77156 -3.03513,-9.11987 -6.08145,-10.69518 -8.14956,-4.2143 -17.92291,1.37565 -17.91107,10.24439 0.005,3.98911 3.48877,9.17502 7.26595,10.81707 4.11874,1.79053 5.04726,1.79483 9.24053,0.0428 z m 68.03543,-24.0272 c 4.06584,-3.10117 6.27452,-7.55833 23.55426,-47.53298 7.25129,-16.775 16.76369,-38.375 21.13868,-48 4.37499,-9.625 9.05405,-20.54446 10.39792,-24.26547 l 2.44339,-6.76548 -2.129,-4.73452 c -1.17095,-2.60399 -2.42663,-6.7221 -2.79041,-9.15135 -0.36377,-2.42925 -1.27927,-4.62277 -2.03443,-4.87449 -0.82108,-0.2737 -19.99776,18.18482 -47.70332,45.91681 -49.31734,49.36442 -51.455,51.89816 -49.87075,59.11123 0.37908,1.72593 2.79142,5.41623 5.36074,8.20066 6.89438,7.47158 14.00936,16.06778 20.58022,24.8647 3.20528,4.29114 6.99312,8.45787 8.41742,9.25938 3.45359,1.94348 8.48724,1.13537 12.63528,-2.02849 z m -54.00717,-55.98461 c 3.74019,-1.56275 5.93969,-5.50707 5.04927,-9.05477 -0.46639,-1.85826 -0.15307,-2.04125 2.88728,-1.68631 4.4911,0.52431 8.52497,-3.24175 8.52497,-7.959 0,-2.87336 -2.1556,-5.40663 -18.929,-22.24546 C 224.50673,525.97005 222.88294,524.6 219.54878,524.6 c -4.76663,0 -7.94878,3.15373 -7.94878,7.87778 0,3.32774 -0.18472,3.52222 -3.34545,3.52222 -4.44702,0 -8.25455,3.75614 -8.25455,8.14312 0,2.85495 2.13921,5.3913 18.25,21.638 15.31781,15.44704 19.92718,19.57022 22.53212,20.15549 0.15516,0.0349 1.84553,-0.58984 3.75636,-1.38824 z m 80.00697,-79.00292 c 1.6278,-1.6278 2.45455,-3.58136 2.45455,-5.8 0,-3.16073 0.19448,-3.34545 3.52222,-3.34545 4.71031,0 7.87778,-3.18362 7.87778,-7.91795 0,-3.29044 -1.44589,-5.00979 -18.94013,-22.52222 C 302.50862,448.99095 300.17265,447 297.21442,447 c -4.78215,0 -8.54954,4.00374 -8.02171,8.52497 0.35494,3.04035 0.17195,3.35367 -1.68631,2.88728 -5.6733,-1.42391 -11.31732,4.96311 -9.35643,10.58812 0.50631,1.45239 9.14483,10.82147 19.19672,20.82017 C 313.48971,505.87816 316.00031,508 318.85688,508 c 2.10033,0 4.09448,-0.86045 5.68857,-2.45455 z m -22.76333,-94.0985 c 11.65902,-4.87025 14.81316,-18.08697 6.33879,-26.56133 -6.39517,-6.39517 -14.726,-7.15126 -21.96892,-1.99385 -8.14425,5.79922 -8.13719,20.42226 0.0127,26.22547 5.51561,3.92746 10.14086,4.61742 15.61747,2.32971 z"
     style="fill:#000000" />
</svg>
