<?xml version="1.0" encoding="UTF-8" standalone="no"?>
<svg
   xmlns:dc="http://purl.org/dc/elements/1.1/"
   xmlns:cc="http://creativecommons.org/ns#"
   xmlns:rdf="http://www.w3.org/1999/02/22-rdf-syntax-ns#"
   xmlns:svg="http://www.w3.org/2000/svg"
   xmlns="http://www.w3.org/2000/svg"
   viewBox="0 0 682.66669 320"
   height="320"
   width="682.66669"
   id="svg2"
   version="1.1">
  <metadata
     id="metadata8">
    <rdf:RDF>
      <cc:Work
         rdf:about="">
        <dc:format>image/svg+xml</dc:format>
        <dc:type
           rdf:resource="http://purl.org/dc/dcmitype/StillImage" />
        <dc:title></dc:title>
      </cc:Work>
    </rdf:RDF>
  </metadata>
  <defs
     id="defs6" />
  <path
     id="path12"
     d="M 227.33334,306.55688 C 127.63091,297.18011 45.960494,255.23391 18.575206,199.33801 11.501504,184.89993 8.9068486,173.98515 8.9068486,158.66667 c 0,-15.31848 2.5946554,-26.23327 9.6683574,-40.67135 C 57.064918,39.434275 198.23129,-6.8660736 333.33334,14.759604 c 41.50413,6.643532 78.17925,18.942729 111.45578,37.377293 13.06408,7.23725 40.59867,27.256839 41.56471,30.220478 0.30311,0.929888 -5.65251,-1.564207 -13.23469,-5.542434 -31.60458,-16.582318 -72.6663,-27.415496 -119.66607,-31.571106 -26.03858,-2.302271 -79.74718,-0.932582 -102.78639,2.621281 -20.80526,3.209267 -44.55626,8.816755 -62.66667,14.795275 -12.80095,4.225785 -47.55457,20.640529 -52.89703,24.984197 L 132.20596,90 l 10.89702,46.9966 c 5.99337,25.84812 11.19703,46.99043 11.56369,46.98289 0.36667,-0.008 6.61876,-21.58809 13.89355,-47.9568 7.27477,-26.36871 13.84477,-48.561011 14.6,-49.31623 1.55821,-1.558224 19.40999,-1.849479 21.61853,-0.352709 0.79499,0.53877 7.33099,22.279579 14.52446,48.312919 7.19346,26.03333 13.44302,48.03794 13.8879,48.89916 0.4449,0.8612 5.85527,-20.4388 12.02307,-47.33334 6.16779,-26.89454 11.86779,-49.339969 12.66667,-49.878739 1.29097,-0.870655 24.78583,-1.520198 24.78583,-0.685234 0,0.184351 -8.32238,30.934353 -18.49416,68.333333 L 245.67836,222 l -11.50585,0.38524 c -6.32821,0.21189 -11.50584,0.10589 -11.50584,-0.23555 0,-1.00506 -27.94001,-101.20082 -28.32865,-101.58946 -0.19497,-0.19497 -6.02063,19.84922 -12.94591,44.54264 -6.92528,24.69342 -13.4167,47.74713 -14.42538,51.23046 l -1.83398,6.33334 h -11.14318 c -9.46157,0 -11.24703,-0.35212 -11.83123,-2.33334 C 141.77991,219.05 135.11484,193.7 127.34707,164 c -7.76777,-29.7 -14.44822,-54.9 -14.84544,-56 -1.66709,-4.61657 -17.916768,18.9616 -21.854638,31.71095 -3.528737,11.42472 -3.506841,26.55761 0.05512,38.08989 10.963618,35.49604 57.079808,67.35461 121.770798,84.12324 34.84358,9.03185 64.79632,11.98804 111.84997,11.03907 48.22259,-0.97254 82.50939,-6.47558 118.28469,-18.98472 12.86464,-4.49823 35.87123,-15.06174 39.68096,-18.21955 0.89201,-0.73939 2.3474,-1.10247 3.23421,-0.80687 1.79908,0.5997 -16.29011,15.10124 -29.26443,23.46039 -34.91694,22.49645 -83.22463,39.02681 -135.41759,46.33843 -17.89782,2.50728 -74.43943,3.59934 -93.50737,1.80605 z M 300.2967,223.96267 C 277.25001,219.23699 265.05601,198.511 268.1709,169.35887 270.6668,146 284.90578,130.7182 306.2445,128.49691 c 25.92295,-2.69849 41.85539,13.50626 45.06615,45.83642 l 0.96,9.66667 H 319.96088 287.6511 l 0.75163,4.63173 c 2.27211,14.00143 14.13253,21.66062 27.83032,17.97219 6.43409,-1.73252 14.43363,-9.01357 14.43363,-13.13725 0,-2.59556 0.73016,-2.8 10,-2.8 5.5,0 10,0.49312 10,1.09581 0,0.60269 -0.95521,3.89923 -2.12271,7.3256 -2.84925,8.36212 -12.21815,18.54492 -20.17139,21.92375 -7.62601,3.2398 -20.2142,4.56285 -28.07588,2.95084 z m 30.44323,-61.04056 c -3.82371,-13.33251 -13.14033,-19.1723 -25.97047,-16.27863 -7.64618,1.72451 -16.76945,11.86924 -16.76945,18.64703 0,0.89014 7.73672,1.37616 21.90692,1.37616 h 21.90693 z m 63.26008,61.23625 c -4.79286,-1.23252 -9.81364,-3.75695 -13,-6.53635 -2.14738,-1.87312 -2.33333,-1.75321 -2.33333,1.50467 0,3.39552 -0.29481,3.53999 -7.22428,3.53999 -12.58125,0 -11.44239,6.25148 -11.44239,-62.80932 V 98.666667 h 10 10 v 19.293153 19.29315 l 4.84958,-3.29101 c 9.81892,-6.6633 22.31354,-7.48279 34.16408,-2.24074 16.62294,7.35313 26.07753,29.09222 22.54228,51.83187 -2.95483,19.00627 -11.26519,31.91531 -24.2226,37.62664 -7.00274,3.08664 -17.63524,4.44395 -23.33334,2.97863 z m 18.02859,-20.17872 c 13.59832,-9.68285 13.48503,-47.11819 -0.16701,-55.18264 -5.68855,-3.36032 -17.7015,-3.26827 -22.30794,0.17095 -11.01014,8.22025 -14.21661,39.04936 -5.2474,50.45188 6.51986,8.28862 19.48975,10.42194 27.72235,4.55981 z m 88.3063,18.08215 c -21.09838,-4.79531 -36.54662,-19.54579 -43.35332,-41.39512 -2.24875,-7.21844 -2.88787,-12.50568 -2.82052,-23.33334 0.13458,-21.6351 6.29805,-36.58145 20.60301,-49.96207 20.69835,-19.360873 56.38448,-20.051299 78.04586,-1.50996 6.27477,5.37097 13.36117,17.90324 14.63781,25.8869 l 0.89311,5.58513 h -14.02587 -14.02587 l -0.89986,-3.58534 c -2.50195,-9.96851 -12.1569,-16.35609 -24.72257,-16.35609 -13.72689,0 -24.0439,7.68308 -28.85242,21.48642 -3.7085,10.6456 -3.36579,31.48791 0.6652,40.45501 6.02613,13.4054 15.00949,19.2553 29.64418,19.30406 14.63803,0.0488 23.95298,-6.93756 27.07167,-20.30406 l 0.85551,-3.66666 h -14.0254 -14.0254 V 163.33333 152 h 27.33333 27.33334 v 34.66667 34.66666 h -9.87488 -9.87488 l -0.93491,-6.79752 -0.93489,-6.79752 -4.8569,4.73172 c -10.00164,9.74388 -26.91269,13.44258 -43.85533,9.59178 z m 84.99845,-63.39512 V 96 h 14.66667 14.66667 v 50 50 h 30 30 v 12.66667 12.66666 h -44.66667 -44.66667 z"
     style="fill:#000000;stroke-width:1.33333337" />
</svg>
